<svg viewBox="0 0 32 32" xmlns="http://www.w3.org/2000/svg" aria-hidden="true" role="presentation" focusable="false" style="display: block; height: 16px; width: 16px; fill: currentcolor;"><g vector-effect="non-scaling-stroke" transform="translate(0,0)scale(1,1)" fill="none" stroke="#000" stroke-width="2"><path d="m5.00135366 26c-.20958675 0-.41387603-.0658516-.58400769-.1882519-.44831611-.3225385-.55027898-.9474397-.22774044-1.3957558l2.80967332-3.9069923.00072115-7.509.00383711-.2653623c.14037147-4.84782402 4.11436019-8.7346377 8.99616289-8.7346377 4.9705627 0 9 4.02943725 9 9l-.0007211 7.508 2.8111156 3.9079923c.0979202.1361053.1596493.2940715.1804241.4591222l.0078277.1248855c0 .5522847-.4477152 1-1 1z"/><path d="m15.3333333 30.6666667c1.4727594 0 2.6666667-1.1939074 2.6666667-2.6666667s-1.1939073-2.6666667-2.6666667-2.6666667h-1.3333333v5.3333334z" transform="matrix(0 1 -1 0 44 12)"/><path d="m16 1v4"/></g></svg>