<svg viewBox="0 0 32 32" xmlns="http://www.w3.org/2000/svg" aria-hidden="true" role="presentation" focusable="false" style="display: block; height: 24px; width: 24px; fill: currentcolor;"><path d="m28 13c1.1045695 0 2 .8954305 2 2v13c0 1.1045695-.8954305 2-2 2h-9c-1.1045695 0-2-.8954305-2-2v-13c0-1.1045695.8954305-2 2-2zm-15 8c1.1045695 0 2 .8954305 2 2v5c0 1.1045695-.8954305 2-2 2h-9c-1.1045695 0-2-.8954305-2-2v-5c0-1.1045695.8954305-2 2-2zm15-6h-9v13h9zm-15 8h-9v5h9zm0-21c1.1045695 0 2 .8954305 2 2v13c0 1.1045695-.8954305 2-2 2h-9c-1.1045695 0-2-.8954305-2-2v-13c0-1.1045695.8954305-2 2-2zm0 2h-9v13h9zm15-2c1.1045695 0 2 .8954305 2 2v5c0 1.1045695-.8954305 2-2 2h-9c-1.1045695 0-2-.8954305-2-2v-5c0-1.1045695.8954305-2 2-2zm0 2h-9v5h9z"/></svg>