<svg viewBox="0 0 32 32" xmlns="http://www.w3.org/2000/svg" aria-hidden="true" role="presentation" focusable="false" style="display: block; height: 24px; width: 24px; fill: currentcolor;"><path d="m24 31a7 7 0 0 0 0-14h-16a7 7 0 0 0 0 14zm5-7a5 5 0 1 1 -5-5 5.00588 5.00588 0 0 1 5 5zm-26 0a5.00588 5.00588 0 0 1 5-5h11.11072a6.97751 6.97751 0 0 0 0 10h-11.11072a5.00588 5.00588 0 0 1 -5-5zm21-23h-16a7 7 0 0 0 0 14h16a7 7 0 0 0 0-14zm-21 7a5 5 0 1 1 5 5 5.00588 5.00588 0 0 1 -5-5zm21 5h-11.11035a6.97836 6.97836 0 0 0 0-10h11.11035a5 5 0 0 1 0 10z"/></svg>